<svg width="151" height="151" viewBox="0 0 151 151" fill="none" xmlns="http://www.w3.org/2000/svg">
<path fill-rule="evenodd" clip-rule="evenodd" d="M75.5 0C33.7862 0 0 34.4575 0 77C0 111.072 21.6119 139.851 51.6231 150.054C55.3981 150.727 56.8137 148.417 56.8137 146.396C56.8137 144.567 56.7194 138.504 56.7194 132.055C37.75 135.616 32.8425 127.339 31.3325 123.007C30.4831 120.794 26.8025 113.96 23.5937 112.131C20.9512 110.687 17.1762 107.126 23.4994 107.03C29.445 106.934 33.6919 112.612 35.1075 114.922C41.9025 126.569 52.7556 123.296 57.0969 121.275C57.7575 116.27 59.7394 112.901 61.91 110.976C45.1112 109.051 27.5575 102.41 27.5575 72.9575C27.5575 64.5837 30.4831 57.6538 35.2962 52.2638C34.5412 50.3388 31.8987 42.4462 36.0512 31.8588C36.0512 31.8588 42.3744 29.8375 56.8137 39.7513C62.8537 38.0188 69.2712 37.1525 75.6887 37.1525C82.1062 37.1525 88.5237 38.0188 94.5637 39.7513C109.003 29.7413 115.326 31.8588 115.326 31.8588C119.479 42.4462 116.836 50.3388 116.081 52.2638C120.894 57.6538 123.82 64.4875 123.82 72.9575C123.82 102.506 106.172 109.051 89.3731 110.976C92.11 113.382 94.4694 118.002 94.4694 125.221C94.4694 135.52 94.375 143.797 94.375 146.396C94.375 148.417 95.7906 150.824 99.5656 150.054C114.553 144.893 127.577 135.069 136.804 121.964C146.031 108.859 150.995 93.1333 151 77C151 34.4575 117.214 0 75.5 0Z" fill="black"/>
</svg>
