<svg width="514" height="512" viewBox="0 0 514 512" fill="none" xmlns="http://www.w3.org/2000/svg">
<rect x="2" width="512" height="512" fill="#FAE688"/>
<g filter="url(#filter0_d_82_9)">
<path d="M155.926 218L155.926 113L197.401 113L210.076 187.475L213.676 187.475L226.351 113L267.751 113L267.751 218L246.526 218L246.526 134.3L243.601 134.3L230.701 209L193.051 209L180.226 134.3L177.151 134.3L177.151 218L155.926 218ZM157.951 215.975L175.126 215.975L175.126 132.125L181.876 132.125L194.851 206.975L228.901 206.975L241.876 132.125L248.551 132.125L248.551 215.975L265.726 215.975L265.726 115.025L228.151 115.025L215.401 189.575L208.426 189.575L195.526 115.025L157.951 115.025L157.951 215.975ZM300.768 218L285.318 202.55L285.318 137L306.543 137L306.543 192.2L311.118 196.775L329.493 196.775L336.993 189.275L336.993 137L358.143 137L358.143 232.55L342.693 248L289.068 248L289.068 226.85L330.918 226.85L336.993 220.775L336.993 216.5L335.493 218L300.768 218ZM291.168 246.05L341.868 246.05L356.118 231.725L356.118 138.95L339.018 138.95L339.018 190.175L330.318 198.8L310.293 198.8L304.518 193.025L304.518 138.95L287.343 138.95L287.343 201.725L301.593 215.975L334.668 215.975L339.018 211.625L339.018 221.675L331.743 228.875L291.168 228.875L291.168 246.05ZM39.0787 380.975L56.2537 380.975L56.2537 297.125L62.7787 297.125L89.1037 380.975L126.154 380.975L126.154 280.025L108.979 280.025L108.979 363.575L102.154 363.575L76.2037 280.025L39.0787 280.025L39.0787 380.975ZM37.0537 383L37.0537 278L77.7787 278L103.729 361.475L106.954 361.475L106.954 278L128.179 278L128.179 383L87.4537 383L61.3537 299.3L58.2787 299.3L58.2787 383L37.0537 383ZM161.242 383L145.792 367.55L145.792 317.45L161.242 302L208.117 302L223.567 317.45L223.567 367.55L208.117 383L161.242 383ZM162.067 380.975L207.292 380.975L221.542 366.725L221.542 318.275L207.292 304.025L162.067 304.025L147.817 318.275L147.817 366.725L162.067 380.975ZM170.767 363.8L164.992 358.025L164.992 326.975L170.767 321.2L198.592 321.2L204.367 326.975L204.367 358.025L198.592 363.8L170.767 363.8ZM171.592 361.775L197.767 361.775L202.342 357.2L202.342 327.8L197.767 323.225L171.592 323.225L167.017 327.8L167.017 357.2L171.592 361.775ZM253.928 383L253.928 323.15L235.253 323.15L235.253 302L253.928 302L253.928 281.45L275.153 281.45L275.153 302L293.753 302L293.753 323.15L275.153 323.15L275.153 361.775L293.228 361.775L293.228 383L253.928 383ZM255.953 380.975L291.128 380.975L291.128 363.875L273.128 363.875L273.128 321.125L291.728 321.125L291.728 304.025L273.128 304.025L273.128 283.475L255.953 283.475L255.953 304.025L237.278 304.025L237.278 321.125L255.953 321.125L255.953 380.975ZM372.319 302L387.769 317.45L387.769 338.825L372.319 354.275L331.519 354.275L331.519 357.2L336.094 361.775L386.719 361.775L386.719 383L325.744 383L310.294 367.55L310.294 317.45L325.744 302L372.319 302ZM362.869 321.2L368.644 326.975L368.644 331.55L364.294 335.9L329.494 335.9L329.494 326.975L335.269 321.2L362.869 321.2ZM371.494 304.025L326.569 304.025L312.319 318.275L312.319 366.8L326.569 381.05L384.619 381.05L384.619 363.875L335.269 363.875L329.494 358.1L329.494 352.325L371.494 352.325L385.744 338L385.744 318.275L371.494 304.025ZM361.969 323.225L336.094 323.225L331.519 327.8L331.519 333.8L363.469 333.8L366.619 330.65L366.619 327.8L361.969 323.225ZM405.087 383L405.087 361.775L452.337 361.775L456.912 357.2L456.912 357.575L452.487 353.075L419.787 353.075L404.337 337.625L404.337 317.45L419.787 302L476.562 302L476.562 323.225L430.062 323.225L425.487 327.8L425.487 327.35L430.062 331.925L462.612 331.925L478.062 347.375L478.062 367.55L462.612 383L405.087 383ZM407.112 380.975L461.862 380.975L476.037 366.725L476.037 348.2L461.787 333.95L429.237 333.95L423.837 328.4L423.837 326.825L429.237 321.2L474.537 321.2L474.537 304.025L420.687 304.025L406.362 318.275L406.362 336.8L420.612 351.05L453.162 351.05L458.562 356.675L458.562 358.175L453.162 363.8L407.112 363.8L407.112 380.975Z" fill="#FAAA33"/>
<path d="M155.926 218L149.926 218L149.926 224L155.926 224L155.926 218ZM155.926 113L155.926 107L149.926 107L149.926 113L155.926 113ZM197.401 113L203.316 111.993L202.466 107L197.401 107L197.401 113ZM210.076 187.475L204.161 188.482L205.011 193.475L210.076 193.475L210.076 187.475ZM213.676 187.475L213.676 193.475L218.741 193.475L219.591 188.482L213.676 187.475ZM226.351 113L226.351 107L221.286 107L220.436 111.993L226.351 113ZM267.751 113L273.751 113L273.751 107L267.751 107L267.751 113ZM267.751 218L267.751 224L273.751 224L273.751 218L267.751 218ZM246.526 218L240.526 218L240.526 224L246.526 224L246.526 218ZM246.526 134.3L252.526 134.3L252.526 128.3L246.526 128.3L246.526 134.3ZM243.601 134.3L243.601 128.3L238.548 128.3L237.688 133.279L243.601 134.3ZM230.701 209L230.701 215L235.753 215L236.613 210.021L230.701 209ZM193.051 209L187.137 210.015L187.993 215L193.051 215L193.051 209ZM180.226 134.3L186.139 133.285L185.283 128.3L180.226 128.3L180.226 134.3ZM177.151 134.3L177.151 128.3L171.151 128.3L171.151 134.3L177.151 134.3ZM177.151 218L177.151 224L183.151 224L183.151 218L177.151 218ZM157.951 215.975L151.951 215.975L151.951 221.975L157.951 221.975L157.951 215.975ZM175.126 215.975L175.126 221.975L181.126 221.975L181.126 215.975L175.126 215.975ZM175.126 132.125L175.126 126.125L169.126 126.125L169.126 132.125L175.126 132.125ZM181.876 132.125L187.788 131.1L186.925 126.125L181.876 126.125L181.876 132.125ZM194.851 206.975L188.939 208L189.801 212.975L194.851 212.975L194.851 206.975ZM228.901 206.975L228.901 212.975L233.95 212.975L234.813 208L228.901 206.975ZM241.876 132.125L241.876 126.125L236.826 126.125L235.964 131.1L241.876 132.125ZM248.551 132.125L254.551 132.125L254.551 126.125L248.551 126.125L248.551 132.125ZM248.551 215.975L242.551 215.975L242.551 221.975L248.551 221.975L248.551 215.975ZM265.726 215.975L265.726 221.975L271.726 221.975L271.726 215.975L265.726 215.975ZM265.726 115.025L271.726 115.025L271.726 109.025L265.726 109.025L265.726 115.025ZM228.151 115.025L228.151 109.025L223.09 109.025L222.237 114.014L228.151 115.025ZM215.401 189.575L215.401 195.575L220.462 195.575L221.315 190.586L215.401 189.575ZM208.426 189.575L202.514 190.598L203.375 195.575L208.426 195.575L208.426 189.575ZM195.526 115.025L201.438 114.002L200.577 109.025L195.526 109.025L195.526 115.025ZM157.951 115.025L157.951 109.025L151.951 109.025L151.951 115.025L157.951 115.025ZM161.926 218L161.926 113L149.926 113L149.926 218L161.926 218ZM155.926 119L197.401 119L197.401 107L155.926 107L155.926 119ZM191.486 114.007L204.161 188.482L215.991 186.468L203.316 111.993L191.486 114.007ZM210.076 193.475L213.676 193.475L213.676 181.475L210.076 181.475L210.076 193.475ZM219.591 188.482L232.266 114.007L220.436 111.993L207.761 186.468L219.591 188.482ZM226.351 119L267.751 119L267.751 107L226.351 107L226.351 119ZM261.751 113L261.751 218L273.751 218L273.751 113L261.751 113ZM267.751 212L246.526 212L246.526 224L267.751 224L267.751 212ZM252.526 218L252.526 134.3L240.526 134.3L240.526 218L252.526 218ZM246.526 128.3L243.601 128.3L243.601 140.3L246.526 140.3L246.526 128.3ZM237.688 133.279L224.788 207.979L236.613 210.021L249.513 135.321L237.688 133.279ZM230.701 203L193.051 203L193.051 215L230.701 215L230.701 203ZM198.964 207.985L186.139 133.285L174.312 135.315L187.137 210.015L198.964 207.985ZM180.226 128.3L177.151 128.3L177.151 140.3L180.226 140.3L180.226 128.3ZM171.151 134.3L171.151 218L183.151 218L183.151 134.3L171.151 134.3ZM177.151 212L155.926 212L155.926 224L177.151 224L177.151 212ZM157.951 221.975L175.126 221.975L175.126 209.975L157.951 209.975L157.951 221.975ZM181.126 215.975L181.126 132.125L169.126 132.125L169.126 215.975L181.126 215.975ZM175.126 138.125L181.876 138.125L181.876 126.125L175.126 126.125L175.126 138.125ZM175.964 133.15L188.939 208L200.763 205.95L187.788 131.1L175.964 133.15ZM194.851 212.975L228.901 212.975L228.901 200.975L194.851 200.975L194.851 212.975ZM234.813 208L247.788 133.15L235.964 131.1L222.989 205.95L234.813 208ZM241.876 138.125L248.551 138.125L248.551 126.125L241.876 126.125L241.876 138.125ZM242.551 132.125L242.551 215.975L254.551 215.975L254.551 132.125L242.551 132.125ZM248.551 221.975L265.726 221.975L265.726 209.975L248.551 209.975L248.551 221.975ZM271.726 215.975L271.726 115.025L259.726 115.025L259.726 215.975L271.726 215.975ZM265.726 109.025L228.151 109.025L228.151 121.025L265.726 121.025L265.726 109.025ZM222.237 114.014L209.487 188.564L221.315 190.586L234.065 116.036L222.237 114.014ZM215.401 183.575L208.426 183.575L208.426 195.575L215.401 195.575L215.401 183.575ZM214.338 188.552L201.438 114.002L189.614 116.048L202.514 190.598L214.338 188.552ZM195.526 109.025L157.951 109.025L157.951 121.025L195.526 121.025L195.526 109.025ZM151.951 115.025L151.951 215.975L163.951 215.975L163.951 115.025L151.951 115.025ZM300.768 218L296.526 222.243L298.283 224L300.768 224L300.768 218ZM285.318 202.55L279.318 202.55L279.318 205.035L281.076 206.793L285.318 202.55ZM285.318 137L285.318 131L279.318 131L279.318 137L285.318 137ZM306.543 137L312.543 137L312.543 131L306.543 131L306.543 137ZM306.543 192.2L300.543 192.2L300.543 194.685L302.301 196.443L306.543 192.2ZM311.118 196.775L306.876 201.018L308.633 202.775L311.118 202.775L311.118 196.775ZM329.493 196.775L329.493 202.775L331.979 202.775L333.736 201.018L329.493 196.775ZM336.993 189.275L341.236 193.518L342.993 191.76L342.993 189.275L336.993 189.275ZM336.993 137L336.993 131L330.993 131L330.993 137L336.993 137ZM358.143 137L364.143 137L364.143 131L358.143 131L358.143 137ZM358.143 232.55L362.386 236.793L364.143 235.035L364.143 232.55L358.143 232.55ZM342.693 248L342.693 254L345.179 254L346.936 252.243L342.693 248ZM289.068 248L283.068 248L283.068 254L289.068 254L289.068 248ZM289.068 226.85L289.068 220.85L283.068 220.85L283.068 226.85L289.068 226.85ZM330.918 226.85L330.918 232.85L333.404 232.85L335.161 231.093L330.918 226.85ZM336.993 220.775L341.236 225.018L342.993 223.26L342.993 220.775L336.993 220.775ZM336.993 216.5L342.993 216.5L342.993 202.015L332.751 212.257L336.993 216.5ZM335.493 218L335.493 224L337.979 224L339.736 222.243L335.493 218ZM291.168 246.05L285.168 246.05L285.168 252.05L291.168 252.05L291.168 246.05ZM341.868 246.05L341.868 252.05L344.363 252.05L346.122 250.281L341.868 246.05ZM356.118 231.725L360.372 235.956L362.118 234.201L362.118 231.725L356.118 231.725ZM356.118 138.95L362.118 138.95L362.118 132.95L356.118 132.95L356.118 138.95ZM339.018 138.95L339.018 132.95L333.018 132.95L333.018 138.95L339.018 138.95ZM339.018 190.175L343.243 194.436L345.018 192.676L345.018 190.175L339.018 190.175ZM330.318 198.8L330.318 204.8L332.788 204.8L334.543 203.061L330.318 198.8ZM310.293 198.8L306.051 203.043L307.808 204.8L310.293 204.8L310.293 198.8ZM304.518 193.025L298.518 193.025L298.518 195.51L300.276 197.268L304.518 193.025ZM304.518 138.95L310.518 138.95L310.518 132.95L304.518 132.95L304.518 138.95ZM287.343 138.95L287.343 132.95L281.343 132.95L281.343 138.95L287.343 138.95ZM287.343 201.725L281.343 201.725L281.343 204.21L283.101 205.968L287.343 201.725ZM301.593 215.975L297.351 220.218L299.108 221.975L301.593 221.975L301.593 215.975ZM334.668 215.975L334.668 221.975L337.154 221.975L338.911 220.218L334.668 215.975ZM339.018 211.625L345.018 211.625L345.018 197.14L334.776 207.382L339.018 211.625ZM339.018 221.675L343.239 225.94L345.018 224.179L345.018 221.675L339.018 221.675ZM331.743 228.875L331.743 234.875L334.21 234.875L335.964 233.14L331.743 228.875ZM291.168 228.875L291.168 222.875L285.168 222.875L285.168 228.875L291.168 228.875ZM305.011 213.757L289.561 198.307L281.076 206.793L296.526 222.243L305.011 213.757ZM291.318 202.55L291.318 137L279.318 137L279.318 202.55L291.318 202.55ZM285.318 143L306.543 143L306.543 131L285.318 131L285.318 143ZM300.543 137L300.543 192.2L312.543 192.2L312.543 137L300.543 137ZM302.301 196.443L306.876 201.018L315.361 192.532L310.786 187.957L302.301 196.443ZM311.118 202.775L329.493 202.775L329.493 190.775L311.118 190.775L311.118 202.775ZM333.736 201.018L341.236 193.518L332.751 185.032L325.251 192.532L333.736 201.018ZM342.993 189.275L342.993 137L330.993 137L330.993 189.275L342.993 189.275ZM336.993 143L358.143 143L358.143 131L336.993 131L336.993 143ZM352.143 137L352.143 232.55L364.143 232.55L364.143 137L352.143 137ZM353.901 228.307L338.451 243.757L346.936 252.243L362.386 236.793L353.901 228.307ZM342.693 242L289.068 242L289.068 254L342.693 254L342.693 242ZM295.068 248L295.068 226.85L283.068 226.85L283.068 248L295.068 248ZM289.068 232.85L330.918 232.85L330.918 220.85L289.068 220.85L289.068 232.85ZM335.161 231.093L341.236 225.018L332.751 216.532L326.676 222.607L335.161 231.093ZM342.993 220.775L342.993 216.5L330.993 216.5L330.993 220.775L342.993 220.775ZM332.751 212.257L331.251 213.757L339.736 222.243L341.236 220.743L332.751 212.257ZM335.493 212L300.768 212L300.768 224L335.493 224L335.493 212ZM291.168 252.05L341.868 252.05L341.868 240.05L291.168 240.05L291.168 252.05ZM346.122 250.281L360.372 235.956L351.865 227.494L337.615 241.819L346.122 250.281ZM362.118 231.725L362.118 138.95L350.118 138.95L350.118 231.725L362.118 231.725ZM356.118 132.95L339.018 132.95L339.018 144.95L356.118 144.95L356.118 132.95ZM333.018 138.95L333.018 190.175L345.018 190.175L345.018 138.95L333.018 138.95ZM334.794 185.914L326.094 194.539L334.543 203.061L343.243 194.436L334.794 185.914ZM330.318 192.8L310.293 192.8L310.293 204.8L330.318 204.8L330.318 192.8ZM314.536 194.557L308.761 188.782L300.276 197.268L306.051 203.043L314.536 194.557ZM310.518 193.025L310.518 138.95L298.518 138.95L298.518 193.025L310.518 193.025ZM304.518 132.95L287.343 132.95L287.343 144.95L304.518 144.95L304.518 132.95ZM281.343 138.95L281.343 201.725L293.343 201.725L293.343 138.95L281.343 138.95ZM283.101 205.968L297.351 220.218L305.836 211.732L291.586 197.482L283.101 205.968ZM301.593 221.975L334.668 221.975L334.668 209.975L301.593 209.975L301.593 221.975ZM338.911 220.218L343.261 215.868L334.776 207.382L330.426 211.732L338.911 220.218ZM333.018 211.625L333.018 221.675L345.018 221.675L345.018 211.625L333.018 211.625ZM334.798 217.41L327.523 224.61L335.964 233.14L343.239 225.94L334.798 217.41ZM331.743 222.875L291.168 222.875L291.168 234.875L331.743 234.875L331.743 222.875ZM285.168 228.875L285.168 246.05L297.168 246.05L297.168 228.875L285.168 228.875ZM39.0787 380.975L33.0787 380.975L33.0787 386.975L39.0787 386.975L39.0787 380.975ZM56.2537 380.975L56.2537 386.975L62.2537 386.975L62.2537 380.975L56.2537 380.975ZM56.2537 297.125L56.2537 291.125L50.2537 291.125L50.2537 297.125L56.2537 297.125ZM62.7787 297.125L68.5032 295.328L67.1837 291.125L62.7787 291.125L62.7787 297.125ZM89.1037 380.975L83.3792 382.772L84.6987 386.975L89.1037 386.975L89.1037 380.975ZM126.154 380.975L126.154 386.975L132.154 386.975L132.154 380.975L126.154 380.975ZM126.154 280.025L132.154 280.025L132.154 274.025L126.154 274.025L126.154 280.025ZM108.979 280.025L108.979 274.025L102.979 274.025L102.979 280.025L108.979 280.025ZM108.979 363.575L108.979 369.575L114.979 369.575L114.979 363.575L108.979 363.575ZM102.154 363.575L96.4237 365.355L97.7345 369.575L102.154 369.575L102.154 363.575ZM76.2037 280.025L81.9337 278.245L80.6229 274.025L76.2037 274.025L76.2037 280.025ZM39.0787 280.025L39.0787 274.025L33.0787 274.025L33.0787 280.025L39.0787 280.025ZM37.0537 383L31.0537 383L31.0537 389L37.0537 389L37.0537 383ZM37.0537 278L37.0537 272L31.0537 272L31.0537 278L37.0537 278ZM77.7787 278L83.5082 276.219L82.1967 272L77.7787 272L77.7787 278ZM103.729 361.475L97.9992 363.256L99.3107 367.475L103.729 367.475L103.729 361.475ZM106.954 361.475L106.954 367.475L112.954 367.475L112.954 361.475L106.954 361.475ZM106.954 278L106.954 272L100.954 272L100.954 278L106.954 278ZM128.179 278L134.179 278L134.179 272L128.179 272L128.179 278ZM128.179 383L128.179 389L134.179 389L134.179 383L128.179 383ZM87.4537 383L81.7257 384.786L83.0397 389L87.4537 389L87.4537 383ZM61.3537 299.3L67.0817 297.514L65.7677 293.3L61.3537 293.3L61.3537 299.3ZM58.2787 299.3L58.2787 293.3L52.2787 293.3L52.2787 299.3L58.2787 299.3ZM58.2787 383L58.2787 389L64.2787 389L64.2787 383L58.2787 383ZM39.0787 386.975L56.2537 386.975L56.2537 374.975L39.0787 374.975L39.0787 386.975ZM62.2537 380.975L62.2537 297.125L50.2537 297.125L50.2537 380.975L62.2537 380.975ZM56.2537 303.125L62.7787 303.125L62.7787 291.125L56.2537 291.125L56.2537 303.125ZM57.0542 298.922L83.3792 382.772L94.8282 379.178L68.5032 295.328L57.0542 298.922ZM89.1037 386.975L126.154 386.975L126.154 374.975L89.1037 374.975L89.1037 386.975ZM132.154 380.975L132.154 280.025L120.154 280.025L120.154 380.975L132.154 380.975ZM126.154 274.025L108.979 274.025L108.979 286.025L126.154 286.025L126.154 274.025ZM102.979 280.025L102.979 363.575L114.979 363.575L114.979 280.025L102.979 280.025ZM108.979 357.575L102.154 357.575L102.154 369.575L108.979 369.575L108.979 357.575ZM107.884 361.795L81.9337 278.245L70.4737 281.805L96.4237 365.355L107.884 361.795ZM76.2037 274.025L39.0787 274.025L39.0787 286.025L76.2037 286.025L76.2037 274.025ZM33.0787 280.025L33.0787 380.975L45.0787 380.975L45.0787 280.025L33.0787 280.025ZM43.0537 383L43.0537 278L31.0537 278L31.0537 383L43.0537 383ZM37.0537 284L77.7787 284L77.7787 272L37.0537 272L37.0537 284ZM72.0492 279.781L97.9992 363.256L109.458 359.694L83.5082 276.219L72.0492 279.781ZM103.729 367.475L106.954 367.475L106.954 355.475L103.729 355.475L103.729 367.475ZM112.954 361.475L112.954 278L100.954 278L100.954 361.475L112.954 361.475ZM106.954 284L128.179 284L128.179 272L106.954 272L106.954 284ZM122.179 278L122.179 383L134.179 383L134.179 278L122.179 278ZM128.179 377L87.4537 377L87.4537 389L128.179 389L128.179 377ZM93.1817 381.214L67.0817 297.514L55.6257 301.086L81.7257 384.786L93.1817 381.214ZM61.3537 293.3L58.2787 293.3L58.2787 305.3L61.3537 305.3L61.3537 293.3ZM52.2787 299.3L52.2787 383L64.2787 383L64.2787 299.3L52.2787 299.3ZM58.2787 377L37.0537 377L37.0537 389L58.2787 389L58.2787 377ZM161.242 383L156.999 387.243L158.757 389L161.242 389L161.242 383ZM145.792 367.55L139.792 367.55L139.792 370.035L141.549 371.793L145.792 367.55ZM145.792 317.45L141.549 313.207L139.792 314.965L139.792 317.45L145.792 317.45ZM161.242 302L161.242 296L158.757 296L156.999 297.757L161.242 302ZM208.117 302L212.36 297.757L210.602 296L208.117 296L208.117 302ZM223.567 317.45L229.567 317.45L229.567 314.965L227.81 313.207L223.567 317.45ZM223.567 367.55L227.81 371.793L229.567 370.035L229.567 367.55L223.567 367.55ZM208.117 383L208.117 389L210.602 389L212.36 387.243L208.117 383ZM162.067 380.975L157.824 385.218L159.582 386.975L162.067 386.975L162.067 380.975ZM207.292 380.975L207.292 386.975L209.777 386.975L211.535 385.218L207.292 380.975ZM221.542 366.725L225.785 370.968L227.542 369.21L227.542 366.725L221.542 366.725ZM221.542 318.275L227.542 318.275L227.542 315.79L225.785 314.032L221.542 318.275ZM207.292 304.025L211.535 299.782L209.777 298.025L207.292 298.025L207.292 304.025ZM162.067 304.025L162.067 298.025L159.582 298.025L157.824 299.782L162.067 304.025ZM147.817 318.275L143.574 314.032L141.817 315.79L141.817 318.275L147.817 318.275ZM147.817 366.725L141.817 366.725L141.817 369.21L143.574 370.968L147.817 366.725ZM170.767 363.8L166.524 368.043L168.282 369.8L170.767 369.8L170.767 363.8ZM164.992 358.025L158.992 358.025L158.992 360.51L160.749 362.268L164.992 358.025ZM164.992 326.975L160.749 322.732L158.992 324.49L158.992 326.975L164.992 326.975ZM170.767 321.2L170.767 315.2L168.282 315.2L166.524 316.957L170.767 321.2ZM198.592 321.2L202.835 316.957L201.077 315.2L198.592 315.2L198.592 321.2ZM204.367 326.975L210.367 326.975L210.367 324.49L208.61 322.732L204.367 326.975ZM204.367 358.025L208.61 362.268L210.367 360.51L210.367 358.025L204.367 358.025ZM198.592 363.8L198.592 369.8L201.077 369.8L202.835 368.043L198.592 363.8ZM171.592 361.775L167.349 366.018L169.107 367.775L171.592 367.775L171.592 361.775ZM197.767 361.775L197.767 367.775L200.252 367.775L202.01 366.018L197.767 361.775ZM202.342 357.2L206.585 361.443L208.342 359.685L208.342 357.2L202.342 357.2ZM202.342 327.8L208.342 327.8L208.342 325.315L206.585 323.557L202.342 327.8ZM197.767 323.225L202.01 318.982L200.252 317.225L197.767 317.225L197.767 323.225ZM171.592 323.225L171.592 317.225L169.107 317.225L167.349 318.982L171.592 323.225ZM167.017 327.8L162.774 323.557L161.017 325.315L161.017 327.8L167.017 327.8ZM167.017 357.2L161.017 357.2L161.017 359.685L162.774 361.443L167.017 357.2ZM165.485 378.757L150.035 363.307L141.549 371.793L156.999 387.243L165.485 378.757ZM151.792 367.55L151.792 317.45L139.792 317.45L139.792 367.55L151.792 367.55ZM150.035 321.693L165.485 306.243L156.999 297.757L141.549 313.207L150.035 321.693ZM161.242 308L208.117 308L208.117 296L161.242 296L161.242 308ZM203.874 306.243L219.324 321.693L227.81 313.207L212.36 297.757L203.874 306.243ZM217.567 317.45L217.567 367.55L229.567 367.55L229.567 317.45L217.567 317.45ZM219.324 363.307L203.874 378.757L212.36 387.243L227.81 371.793L219.324 363.307ZM208.117 377L161.242 377L161.242 389L208.117 389L208.117 377ZM162.067 386.975L207.292 386.975L207.292 374.975L162.067 374.975L162.067 386.975ZM211.535 385.218L225.785 370.968L217.299 362.482L203.049 376.732L211.535 385.218ZM227.542 366.725L227.542 318.275L215.542 318.275L215.542 366.725L227.542 366.725ZM225.785 314.032L211.535 299.782L203.049 308.268L217.299 322.518L225.785 314.032ZM207.292 298.025L162.067 298.025L162.067 310.025L207.292 310.025L207.292 298.025ZM157.824 299.782L143.574 314.032L152.06 322.518L166.31 308.268L157.824 299.782ZM141.817 318.275L141.817 366.725L153.817 366.725L153.817 318.275L141.817 318.275ZM143.574 370.968L157.824 385.218L166.31 376.732L152.06 362.482L143.574 370.968ZM175.01 359.557L169.235 353.782L160.749 362.268L166.524 368.043L175.01 359.557ZM170.992 358.025L170.992 326.975L158.992 326.975L158.992 358.025L170.992 358.025ZM169.235 331.218L175.01 325.443L166.524 316.957L160.749 322.732L169.235 331.218ZM170.767 327.2L198.592 327.2L198.592 315.2L170.767 315.2L170.767 327.2ZM194.349 325.443L200.124 331.218L208.61 322.732L202.835 316.957L194.349 325.443ZM198.367 326.975L198.367 358.025L210.367 358.025L210.367 326.975L198.367 326.975ZM200.124 353.782L194.349 359.557L202.835 368.043L208.61 362.268L200.124 353.782ZM198.592 357.8L170.767 357.8L170.767 369.8L198.592 369.8L198.592 357.8ZM171.592 367.775L197.767 367.775L197.767 355.775L171.592 355.775L171.592 367.775ZM202.01 366.018L206.585 361.443L198.099 352.957L193.524 357.532L202.01 366.018ZM208.342 357.2L208.342 327.8L196.342 327.8L196.342 357.2L208.342 357.2ZM206.585 323.557L202.01 318.982L193.524 327.468L198.099 332.043L206.585 323.557ZM197.767 317.225L171.592 317.225L171.592 329.225L197.767 329.225L197.767 317.225ZM167.349 318.982L162.774 323.557L171.26 332.043L175.835 327.468L167.349 318.982ZM161.017 327.8L161.017 357.2L173.017 357.2L173.017 327.8L161.017 327.8ZM162.774 361.443L167.349 366.018L175.835 357.532L171.26 352.957L162.774 361.443ZM253.928 383L247.928 383L247.928 389L253.928 389L253.928 383ZM253.928 323.15L259.928 323.15L259.928 317.15L253.928 317.15L253.928 323.15ZM235.253 323.15L229.253 323.15L229.253 329.15L235.253 329.15L235.253 323.15ZM235.253 302L235.253 296L229.253 296L229.253 302L235.253 302ZM253.928 302L253.928 308L259.928 308L259.928 302L253.928 302ZM253.928 281.45L253.928 275.45L247.928 275.45L247.928 281.45L253.928 281.45ZM275.153 281.45L281.153 281.45L281.153 275.45L275.153 275.45L275.153 281.45ZM275.153 302L269.153 302L269.153 308L275.153 308L275.153 302ZM293.753 302L299.753 302L299.753 296L293.753 296L293.753 302ZM293.753 323.15L293.753 329.15L299.753 329.15L299.753 323.15L293.753 323.15ZM275.153 323.15L275.153 317.15L269.153 317.15L269.153 323.15L275.153 323.15ZM275.153 361.775L269.153 361.775L269.153 367.775L275.153 367.775L275.153 361.775ZM293.228 361.775L299.228 361.775L299.228 355.775L293.228 355.775L293.228 361.775ZM293.228 383L293.228 389L299.228 389L299.228 383L293.228 383ZM255.953 380.975L249.953 380.975L249.953 386.975L255.953 386.975L255.953 380.975ZM291.128 380.975L291.128 386.975L297.128 386.975L297.128 380.975L291.128 380.975ZM291.128 363.875L297.128 363.875L297.128 357.875L291.128 357.875L291.128 363.875ZM273.128 363.875L267.128 363.875L267.128 369.875L273.128 369.875L273.128 363.875ZM273.128 321.125L273.128 315.125L267.128 315.125L267.128 321.125L273.128 321.125ZM291.728 321.125L291.728 327.125L297.728 327.125L297.728 321.125L291.728 321.125ZM291.728 304.025L297.728 304.025L297.728 298.025L291.728 298.025L291.728 304.025ZM273.128 304.025L267.128 304.025L267.128 310.025L273.128 310.025L273.128 304.025ZM273.128 283.475L279.128 283.475L279.128 277.475L273.128 277.475L273.128 283.475ZM255.953 283.475L255.953 277.475L249.953 277.475L249.953 283.475L255.953 283.475ZM255.953 304.025L255.953 310.025L261.953 310.025L261.953 304.025L255.953 304.025ZM237.278 304.025L237.278 298.025L231.278 298.025L231.278 304.025L237.278 304.025ZM237.278 321.125L231.278 321.125L231.278 327.125L237.278 327.125L237.278 321.125ZM255.953 321.125L261.953 321.125L261.953 315.125L255.953 315.125L255.953 321.125ZM259.928 383L259.928 323.15L247.928 323.15L247.928 383L259.928 383ZM253.928 317.15L235.253 317.15L235.253 329.15L253.928 329.15L253.928 317.15ZM241.253 323.15L241.253 302L229.253 302L229.253 323.15L241.253 323.15ZM235.253 308L253.928 308L253.928 296L235.253 296L235.253 308ZM259.928 302L259.928 281.45L247.928 281.45L247.928 302L259.928 302ZM253.928 287.45L275.153 287.45L275.153 275.45L253.928 275.45L253.928 287.45ZM269.153 281.45L269.153 302L281.153 302L281.153 281.45L269.153 281.45ZM275.153 308L293.753 308L293.753 296L275.153 296L275.153 308ZM287.753 302L287.753 323.15L299.753 323.15L299.753 302L287.753 302ZM293.753 317.15L275.153 317.15L275.153 329.15L293.753 329.15L293.753 317.15ZM269.153 323.15L269.153 361.775L281.153 361.775L281.153 323.15L269.153 323.15ZM275.153 367.775L293.228 367.775L293.228 355.775L275.153 355.775L275.153 367.775ZM287.228 361.775L287.228 383L299.228 383L299.228 361.775L287.228 361.775ZM293.228 377L253.928 377L253.928 389L293.228 389L293.228 377ZM255.953 386.975L291.128 386.975L291.128 374.975L255.953 374.975L255.953 386.975ZM297.128 380.975L297.128 363.875L285.128 363.875L285.128 380.975L297.128 380.975ZM291.128 357.875L273.128 357.875L273.128 369.875L291.128 369.875L291.128 357.875ZM279.128 363.875L279.128 321.125L267.128 321.125L267.128 363.875L279.128 363.875ZM273.128 327.125L291.728 327.125L291.728 315.125L273.128 315.125L273.128 327.125ZM297.728 321.125L297.728 304.025L285.728 304.025L285.728 321.125L297.728 321.125ZM291.728 298.025L273.128 298.025L273.128 310.025L291.728 310.025L291.728 298.025ZM279.128 304.025L279.128 283.475L267.128 283.475L267.128 304.025L279.128 304.025ZM273.128 277.475L255.953 277.475L255.953 289.475L273.128 289.475L273.128 277.475ZM249.953 283.475L249.953 304.025L261.953 304.025L261.953 283.475L249.953 283.475ZM255.953 298.025L237.278 298.025L237.278 310.025L255.953 310.025L255.953 298.025ZM231.278 304.025L231.278 321.125L243.278 321.125L243.278 304.025L231.278 304.025ZM237.278 327.125L255.953 327.125L255.953 315.125L237.278 315.125L237.278 327.125ZM249.953 321.125L249.953 380.975L261.953 380.975L261.953 321.125L249.953 321.125ZM372.319 302L376.562 297.757L374.804 296L372.319 296L372.319 302ZM387.769 317.45L393.769 317.45L393.769 314.965L392.012 313.207L387.769 317.45ZM387.769 338.825L392.012 343.068L393.769 341.31L393.769 338.825L387.769 338.825ZM372.319 354.275L372.319 360.275L374.804 360.275L376.562 358.518L372.319 354.275ZM331.519 354.275L331.519 348.275L325.519 348.275L325.519 354.275L331.519 354.275ZM331.519 357.2L325.519 357.2L325.519 359.685L327.276 361.443L331.519 357.2ZM336.094 361.775L331.851 366.018L333.609 367.775L336.094 367.775L336.094 361.775ZM386.719 361.775L392.719 361.775L392.719 355.775L386.719 355.775L386.719 361.775ZM386.719 383L386.719 389L392.719 389L392.719 383L386.719 383ZM325.744 383L321.501 387.243L323.259 389L325.744 389L325.744 383ZM310.294 367.55L304.294 367.55L304.294 370.035L306.051 371.793L310.294 367.55ZM310.294 317.45L306.051 313.207L304.294 314.965L304.294 317.45L310.294 317.45ZM325.744 302L325.744 296L323.259 296L321.501 297.757L325.744 302ZM362.869 321.2L367.112 316.957L365.354 315.2L362.869 315.2L362.869 321.2ZM368.644 326.975L374.644 326.975L374.644 324.49L372.887 322.732L368.644 326.975ZM368.644 331.55L372.887 335.793L374.644 334.035L374.644 331.55L368.644 331.55ZM364.294 335.9L364.294 341.9L366.779 341.9L368.537 340.143L364.294 335.9ZM329.494 335.9L323.494 335.9L323.494 341.9L329.494 341.9L329.494 335.9ZM329.494 326.975L325.251 322.732L323.494 324.49L323.494 326.975L329.494 326.975ZM335.269 321.2L335.269 315.2L332.784 315.2L331.026 316.957L335.269 321.2ZM371.494 304.025L375.737 299.782L373.979 298.025L371.494 298.025L371.494 304.025ZM326.569 304.025L326.569 298.025L324.084 298.025L322.326 299.782L326.569 304.025ZM312.319 318.275L308.076 314.032L306.319 315.79L306.319 318.275L312.319 318.275ZM312.319 366.8L306.319 366.8L306.319 369.285L308.076 371.043L312.319 366.8ZM326.569 381.05L322.326 385.293L324.084 387.05L326.569 387.05L326.569 381.05ZM384.619 381.05L384.619 387.05L390.619 387.05L390.619 381.05L384.619 381.05ZM384.619 363.875L390.619 363.875L390.619 357.875L384.619 357.875L384.619 363.875ZM335.269 363.875L331.026 368.118L332.784 369.875L335.269 369.875L335.269 363.875ZM329.494 358.1L323.494 358.1L323.494 360.585L325.251 362.343L329.494 358.1ZM329.494 352.325L329.494 346.325L323.494 346.325L323.494 352.325L329.494 352.325ZM371.494 352.325L371.494 358.325L373.988 358.325L375.748 356.556L371.494 352.325ZM385.744 338L389.998 342.231L391.744 340.476L391.744 338L385.744 338ZM385.744 318.275L391.744 318.275L391.744 315.79L389.987 314.032L385.744 318.275ZM361.969 323.225L366.177 318.948L364.426 317.225L361.969 317.225L361.969 323.225ZM336.094 323.225L336.094 317.225L333.609 317.225L331.851 318.982L336.094 323.225ZM331.519 327.8L327.276 323.557L325.519 325.315L325.519 327.8L331.519 327.8ZM331.519 333.8L325.519 333.8L325.519 339.8L331.519 339.8L331.519 333.8ZM363.469 333.8L363.469 339.8L365.954 339.8L367.712 338.043L363.469 333.8ZM366.619 330.65L370.862 334.893L372.619 333.135L372.619 330.65L366.619 330.65ZM366.619 327.8L372.619 327.8L372.619 325.286L370.827 323.523L366.619 327.8ZM368.076 306.243L383.526 321.693L392.012 313.207L376.562 297.757L368.076 306.243ZM381.769 317.45L381.769 338.825L393.769 338.825L393.769 317.45L381.769 317.45ZM383.526 334.582L368.076 350.032L376.562 358.518L392.012 343.068L383.526 334.582ZM372.319 348.275L331.519 348.275L331.519 360.275L372.319 360.275L372.319 348.275ZM325.519 354.275L325.519 357.2L337.519 357.2L337.519 354.275L325.519 354.275ZM327.276 361.443L331.851 366.018L340.337 357.532L335.762 352.957L327.276 361.443ZM336.094 367.775L386.719 367.775L386.719 355.775L336.094 355.775L336.094 367.775ZM380.719 361.775L380.719 383L392.719 383L392.719 361.775L380.719 361.775ZM386.719 377L325.744 377L325.744 389L386.719 389L386.719 377ZM329.987 378.757L314.537 363.307L306.051 371.793L321.501 387.243L329.987 378.757ZM316.294 367.55L316.294 317.45L304.294 317.45L304.294 367.55L316.294 367.55ZM314.537 321.693L329.987 306.243L321.501 297.757L306.051 313.207L314.537 321.693ZM325.744 308L372.319 308L372.319 296L325.744 296L325.744 308ZM358.626 325.443L364.401 331.218L372.887 322.732L367.112 316.957L358.626 325.443ZM362.644 326.975L362.644 331.55L374.644 331.55L374.644 326.975L362.644 326.975ZM364.401 327.307L360.051 331.657L368.537 340.143L372.887 335.793L364.401 327.307ZM364.294 329.9L329.494 329.9L329.494 341.9L364.294 341.9L364.294 329.9ZM335.494 335.9L335.494 326.975L323.494 326.975L323.494 335.9L335.494 335.9ZM333.737 331.218L339.512 325.443L331.026 316.957L325.251 322.732L333.737 331.218ZM335.269 327.2L362.869 327.2L362.869 315.2L335.269 315.2L335.269 327.2ZM371.494 298.025L326.569 298.025L326.569 310.025L371.494 310.025L371.494 298.025ZM322.326 299.782L308.076 314.032L316.562 322.518L330.812 308.268L322.326 299.782ZM306.319 318.275L306.319 366.8L318.319 366.8L318.319 318.275L306.319 318.275ZM308.076 371.043L322.326 385.293L330.812 376.807L316.562 362.557L308.076 371.043ZM326.569 387.05L384.619 387.05L384.619 375.05L326.569 375.05L326.569 387.05ZM390.619 381.05L390.619 363.875L378.619 363.875L378.619 381.05L390.619 381.05ZM384.619 357.875L335.269 357.875L335.269 369.875L384.619 369.875L384.619 357.875ZM339.512 359.632L333.737 353.857L325.251 362.343L331.026 368.118L339.512 359.632ZM335.494 358.1L335.494 352.325L323.494 352.325L323.494 358.1L335.494 358.1ZM329.494 358.325L371.494 358.325L371.494 346.325L329.494 346.325L329.494 358.325ZM375.748 356.556L389.998 342.231L381.49 333.769L367.24 348.094L375.748 356.556ZM391.744 338L391.744 318.275L379.744 318.275L379.744 338L391.744 338ZM389.987 314.032L375.737 299.782L367.251 308.268L381.501 322.518L389.987 314.032ZM361.969 317.225L336.094 317.225L336.094 329.225L361.969 329.225L361.969 317.225ZM331.851 318.982L327.276 323.557L335.762 332.043L340.337 327.468L331.851 318.982ZM325.519 327.8L325.519 333.8L337.519 333.8L337.519 327.8L325.519 327.8ZM331.519 339.8L363.469 339.8L363.469 327.8L331.519 327.8L331.519 339.8ZM367.712 338.043L370.862 334.893L362.376 326.407L359.226 329.557L367.712 338.043ZM372.619 330.65L372.619 327.8L360.619 327.8L360.619 330.65L372.619 330.65ZM370.827 323.523L366.177 318.948L357.761 327.502L362.411 332.077L370.827 323.523ZM405.087 383L399.087 383L399.087 389L405.087 389L405.087 383ZM405.087 361.775L405.087 355.775L399.087 355.775L399.087 361.775L405.087 361.775ZM452.337 361.775L452.337 367.775L454.822 367.775L456.58 366.018L452.337 361.775ZM456.912 357.2L462.912 357.2L462.912 342.715L452.669 352.957L456.912 357.2ZM456.912 357.575L452.634 361.782L462.912 372.234L462.912 357.575L456.912 357.575ZM452.487 353.075L456.765 348.868L455.002 347.075L452.487 347.075L452.487 353.075ZM419.787 353.075L415.544 357.318L417.302 359.075L419.787 359.075L419.787 353.075ZM404.337 337.625L398.337 337.625L398.337 340.11L400.094 341.868L404.337 337.625ZM404.337 317.45L400.094 313.207L398.337 314.965L398.337 317.45L404.337 317.45ZM419.787 302L419.787 296L417.302 296L415.544 297.757L419.787 302ZM476.562 302L482.562 302L482.562 296L476.562 296L476.562 302ZM476.562 323.225L476.562 329.225L482.562 329.225L482.562 323.225L476.562 323.225ZM430.062 323.225L430.062 317.225L427.577 317.225L425.819 318.982L430.062 323.225ZM425.487 327.8L419.487 327.8L419.487 342.285L429.73 332.043L425.487 327.8ZM425.487 327.35L429.73 323.107L419.487 312.865L419.487 327.35L425.487 327.35ZM430.062 331.925L425.819 336.168L427.577 337.925L430.062 337.925L430.062 331.925ZM462.612 331.925L466.855 327.682L465.097 325.925L462.612 325.925L462.612 331.925ZM478.062 347.375L484.062 347.375L484.062 344.89L482.305 343.132L478.062 347.375ZM478.062 367.55L482.305 371.793L484.062 370.035L484.062 367.55L478.062 367.55ZM462.612 383L462.612 389L465.097 389L466.855 387.243L462.612 383ZM407.112 380.975L401.112 380.975L401.112 386.975L407.112 386.975L407.112 380.975ZM461.862 380.975L461.862 386.975L464.356 386.975L466.116 385.206L461.862 380.975ZM476.037 366.725L480.291 370.956L482.037 369.201L482.037 366.725L476.037 366.725ZM476.037 348.2L482.037 348.2L482.037 345.715L480.28 343.957L476.037 348.2ZM461.787 333.95L466.03 329.707L464.272 327.95L461.787 327.95L461.787 333.95ZM429.237 333.95L424.937 338.134L426.703 339.95L429.237 339.95L429.237 333.95ZM423.837 328.4L417.837 328.4L417.837 330.837L419.537 332.584L423.837 328.4ZM423.837 326.825L419.509 322.67L417.837 324.411L417.837 326.825L423.837 326.825ZM429.237 321.2L429.237 315.2L426.68 315.2L424.909 317.045L429.237 321.2ZM474.537 321.2L474.537 327.2L480.537 327.2L480.537 321.2L474.537 321.2ZM474.537 304.025L480.537 304.025L480.537 298.025L474.537 298.025L474.537 304.025ZM420.687 304.025L420.687 298.025L418.211 298.025L416.455 299.771L420.687 304.025ZM406.362 318.275L402.13 314.021L400.362 315.78L400.362 318.275L406.362 318.275ZM406.362 336.8L400.362 336.8L400.362 339.285L402.119 341.043L406.362 336.8ZM420.612 351.05L416.369 355.293L418.127 357.05L420.612 357.05L420.612 351.05ZM453.162 351.05L457.49 346.895L455.719 345.05L453.162 345.05L453.162 351.05ZM458.562 356.675L464.562 356.675L464.562 354.261L462.89 352.52L458.562 356.675ZM458.562 358.175L462.89 362.33L464.562 360.589L464.562 358.175L458.562 358.175ZM453.162 363.8L453.162 369.8L455.719 369.8L457.49 367.955L453.162 363.8ZM407.112 363.8L407.112 357.8L401.112 357.8L401.112 363.8L407.112 363.8ZM411.087 383L411.087 361.775L399.087 361.775L399.087 383L411.087 383ZM405.087 367.775L452.337 367.775L452.337 355.775L405.087 355.775L405.087 367.775ZM456.58 366.018L461.155 361.443L452.669 352.957L448.094 357.532L456.58 366.018ZM450.912 357.2L450.912 357.575L462.912 357.575L462.912 357.2L450.912 357.2ZM461.19 353.368L456.765 348.868L448.209 357.282L452.634 361.782L461.19 353.368ZM452.487 347.075L419.787 347.075L419.787 359.075L452.487 359.075L452.487 347.075ZM424.03 348.832L408.58 333.382L400.094 341.868L415.544 357.318L424.03 348.832ZM410.337 337.625L410.337 317.45L398.337 317.45L398.337 337.625L410.337 337.625ZM408.58 321.693L424.03 306.243L415.544 297.757L400.094 313.207L408.58 321.693ZM419.787 308L476.562 308L476.562 296L419.787 296L419.787 308ZM470.562 302L470.562 323.225L482.562 323.225L482.562 302L470.562 302ZM476.562 317.225L430.062 317.225L430.062 329.225L476.562 329.225L476.562 317.225ZM425.819 318.982L421.244 323.557L429.73 332.043L434.305 327.468L425.819 318.982ZM431.487 327.8L431.487 327.35L419.487 327.35L419.487 327.8L431.487 327.8ZM421.244 331.593L425.819 336.168L434.305 327.682L429.73 323.107L421.244 331.593ZM430.062 337.925L462.612 337.925L462.612 325.925L430.062 325.925L430.062 337.925ZM458.369 336.168L473.819 351.618L482.305 343.132L466.855 327.682L458.369 336.168ZM472.062 347.375L472.062 367.55L484.062 367.55L484.062 347.375L472.062 347.375ZM473.819 363.307L458.369 378.757L466.855 387.243L482.305 371.793L473.819 363.307ZM462.612 377L405.087 377L405.087 389L462.612 389L462.612 377ZM407.112 386.975L461.862 386.975L461.862 374.975L407.112 374.975L407.112 386.975ZM466.116 385.206L480.291 370.956L471.783 362.494L457.608 376.744L466.116 385.206ZM482.037 366.725L482.037 348.2L470.037 348.2L470.037 366.725L482.037 366.725ZM480.28 343.957L466.03 329.707L457.544 338.193L471.794 352.443L480.28 343.957ZM461.787 327.95L429.237 327.95L429.237 339.95L461.787 339.95L461.787 327.95ZM433.537 329.766L428.137 324.216L419.537 332.584L424.937 338.134L433.537 329.766ZM429.837 328.4L429.837 326.825L417.837 326.825L417.837 328.4L429.837 328.4ZM428.165 330.98L433.565 325.355L424.909 317.045L419.509 322.67L428.165 330.98ZM429.237 327.2L474.537 327.2L474.537 315.2L429.237 315.2L429.237 327.2ZM480.537 321.2L480.537 304.025L468.537 304.025L468.537 321.2L480.537 321.2ZM474.537 298.025L420.687 298.025L420.687 310.025L474.537 310.025L474.537 298.025ZM416.455 299.771L402.13 314.021L410.593 322.529L424.918 308.279L416.455 299.771ZM400.362 318.275L400.362 336.8L412.362 336.8L412.362 318.275L400.362 318.275ZM402.119 341.043L416.369 355.293L424.855 346.807L410.605 332.557L402.119 341.043ZM420.612 357.05L453.162 357.05L453.162 345.05L420.612 345.05L420.612 357.05ZM448.834 355.205L454.234 360.83L462.89 352.52L457.49 346.895L448.834 355.205ZM452.562 356.675L452.562 358.175L464.562 358.175L464.562 356.675L452.562 356.675ZM454.234 354.02L448.834 359.645L457.49 367.955L462.89 362.33L454.234 354.02ZM453.162 357.8L407.112 357.8L407.112 369.8L453.162 369.8L453.162 357.8ZM401.112 363.8L401.112 380.975L413.112 380.975L413.112 363.8L401.112 363.8Z" fill="#FAAA33"/>
</g>
<defs>
<filter id="filter0_d_82_9" x="33.0537" y="113" width="449.008" height="278" filterUnits="userSpaceOnUse" color-interpolation-filters="sRGB">
<feFlood flood-opacity="0" result="BackgroundImageFix"/>
<feColorMatrix in="SourceAlpha" type="matrix" values="0 0 0 0 0 0 0 0 0 0 0 0 0 0 0 0 0 0 127 0" result="hardAlpha"/>
<feOffset dy="4"/>
<feGaussianBlur stdDeviation="2"/>
<feComposite in2="hardAlpha" operator="out"/>
<feColorMatrix type="matrix" values="0 0 0 0 0 0 0 0 0 0 0 0 0 0 0 0 0 0 0.25 0"/>
<feBlend mode="normal" in2="BackgroundImageFix" result="effect1_dropShadow_82_9"/>
<feBlend mode="normal" in="SourceGraphic" in2="effect1_dropShadow_82_9" result="shape"/>
</filter>
</defs>
</svg>
