<svg width="19" height="33" viewBox="0 0 19 33" fill="none" xmlns="http://www.w3.org/2000/svg">
<path d="M0.678955 32.8131C0.883865 32.9519 1.11393 33.0154 1.34446 32.9968C1.57499 32.9782 1.79728 32.8782 1.98746 32.7075L18.4547 17.8567C18.6229 17.7048 18.7604 17.5021 18.8554 17.2659C18.9504 17.0297 19 16.767 19 16.5003C19 16.2337 18.9504 15.971 18.8554 15.7347C18.7604 15.4985 18.6229 15.2958 18.4547 15.1439L1.98746 0.293159C1.79743 0.121868 1.57504 0.0215629 1.34437 0.00310507C1.11371 -0.0153528 0.883571 0.0487399 0.678866 0.188443C0.474162 0.328146 0.302696 0.538136 0.183035 0.795676C0.0633745 1.05322 7.80081e-05 1.34849 1.72058e-08 1.64953V31.3511C-3.80866e-05 31.6523 0.0632126 31.9478 0.182896 32.2055C0.30258 32.4632 0.474131 32.6733 0.678955 32.8131Z" fill="black"/>
</svg>
